<?xml version="1.0" encoding="utf-8"?>
<!-- Generator: Adobe Illustrator 27.7.0, SVG Export Plug-In . SVG Version: 6.00 Build 0)  -->
<svg version="1.1" id="Capa_1" xmlns="http://www.w3.org/2000/svg" xmlns:xlink="http://www.w3.org/1999/xlink" x="0px" y="0px"
	 viewBox="0 0 56 56" style="enable-background:new 0 0 56 56;" xml:space="preserve">
<style type="text/css">
	.st0{fill:#FFFFFF;}
	.st1{fill:#FF3294;}
</style>
<g>
	<g>
		<path d="M-231,5.8c5,0,9.1,4.1,9.1,9.1c0,5-4.1,9.1-9.1,9.1s-9.1-4.1-9.1-9.1C-240.1,9.9-236,5.8-231,5.8 M-231-3.3
			c-10,0-18.2,8.2-18.2,18.2s8.2,18.2,18.2,18.2s18.2-8.2,18.2-18.2S-221-3.3-231-3.3L-231-3.3z"/>
		<g>
			<path d="M-232,117.8c-26.5,0-36.8-12.8-40.6-20.4c-6-12.2-3.9-27.7,5.3-39.7c16.7-21.6,48.5-21.6,49.9-21.5l4.5,0v56.7h-36.6v-39
				c-3.9,2.4-7.6,5.4-10.6,9.3c-7.1,9.2-8.8,21-4.3,30.1c4.9,9.9,16.4,15.3,32.4,15.3c38.1,0,55.4-29.9,55.4-57.7
				c0-14.5-6-35.1-22.7-49.4C-216-12.8-239.6-18-269.5-13.9v68.6h-9.1v-76.5l3.8-0.6c33.9-5.4,62.1,0.5,81.4,17
				c19.1,16.3,25.9,39.8,25.9,56.3c0,17.3-5.6,33.5-15.8,45.6C-194.9,110.5-211.8,117.8-232,117.8z M-240.3,83.8h18.4V45.6
				c-4.3,0.4-11.2,1.4-18.4,4V83.8z"/>
		</g>
	</g>
	<path class="st0" d="M-217.3,36.2l4.5,0v56.7h-36.6v-39c-3.9,2.4-7.6,5.4-10.6,9.3c-7.1,9.2-8.8,21-4.3,30.1
		c4.9,9.9,16.4,15.3,32.4,15.3c38.1,0,55.4-29.9,55.4-57.7c0-14.5-6-35.1-22.7-49.4C-216-12.8-239.6-18-269.5-13.9V61
		c0.7-1.1,1.4-2.2,2.2-3.2C-250.6,36.1-218.7,36.2-217.3,36.2z M-231-3.3c10,0,18.2,8.2,18.2,18.2c0,10-8.2,18.2-18.2,18.2
		c-10,0-18.2-8.2-18.2-18.2C-249.2,4.9-241-3.3-231-3.3z"/>
	<g>
		<path class="st1" d="M-240.3,83.8h18.4V45.6c-4.3,0.4-11.2,1.4-18.4,4V83.8z"/>
		<path class="st1" d="M-231,5.8c5,0,9.1,4.1,9.1,9.1c0,5-4.1,9.1-9.1,9.1s-9.1-4.1-9.1-9.1C-240.1,9.9-236,5.8-231,5.8"/>
	</g>
</g>
<g>
	<g>
		<path class="st0" d="M26.2,12.6c1.9,0,3.4,1.5,3.4,3.4c0,1.9-1.5,3.4-3.4,3.4s-3.4-1.5-3.4-3.4C22.7,14.1,24.3,12.6,26.2,12.6
			 M26.2,9.1c-3.8,0-6.9,3.1-6.9,6.9s3.1,6.9,6.9,6.9S33,19.8,33,16S29.9,9.1,26.2,9.1L26.2,9.1z"/>
		<g>
			<path class="st0" d="M25.8,54.8c-10,0-13.9-4.8-15.3-7.7c-2.3-4.6-1.5-10.5,2-15C18.8,24,30.8,24,31.3,24l1.7,0v21.4H19.2V30.7
				c-1.5,0.9-2.9,2.1-4,3.5c-2.7,3.5-3.3,7.9-1.6,11.3c1.8,3.7,6.2,5.8,12.2,5.8c14.4,0,20.9-11.3,20.9-21.8
				c0-5.5-2.3-13.2-8.6-18.6c-6.3-5.4-15.2-7.4-26.5-5.8V31H8.2V2.2l1.4-0.2c12.8-2,23.4,0.2,30.7,6.4c7.2,6.2,9.8,15,9.8,21.2
				c0,6.5-2.1,12.6-6,17.2C39.8,52,33.4,54.8,25.8,54.8z M22.7,42h6.9V27.5c-1.6,0.1-4.2,0.5-6.9,1.5V42z"/>
		</g>
	</g>
</g>
<g>
	<g>
		<path d="M25,12.6c1.9,0,3.4,1.5,3.4,3.4c0,1.9-1.5,3.4-3.4,3.4s-3.4-1.5-3.4-3.4C21.5,14.1,23.1,12.6,25,12.6 M25,9.1
			c-3.8,0-6.9,3.1-6.9,6.9s3.1,6.9,6.9,6.9s6.9-3.1,6.9-6.9S28.8,9.1,25,9.1L25,9.1z"/>
		<g>
			<path d="M24.6,54.8c-10,0-13.9-4.8-15.3-7.7c-2.3-4.6-1.5-10.5,2-15C17.6,24,29.6,24,30.1,24l1.7,0v21.4H18.1V30.7
				c-1.5,0.9-2.9,2.1-4,3.5c-2.7,3.5-3.3,7.9-1.6,11.3c1.8,3.7,6.2,5.8,12.2,5.8c14.4,0,20.9-11.3,20.9-21.8
				c0-5.5-2.3-13.2-8.6-18.6c-6.3-5.4-15.2-7.4-26.5-5.8V31H7V2.2l1.4-0.2c12.8-2,23.4,0.2,30.7,6.4c7.2,6.2,9.8,15,9.8,21.2
				c0,6.5-2.1,12.6-6,17.2C38.6,52,32.2,54.8,24.6,54.8z M21.5,42h6.9V27.5c-1.6,0.1-4.2,0.5-6.9,1.5V42z"/>
		</g>
	</g>
	<path class="st0" d="M30.1,24l1.7,0v21.4H18.1V30.7c-1.5,0.9-2.9,2.1-4,3.5c-2.7,3.5-3.3,7.9-1.6,11.3c1.8,3.7,6.2,5.8,12.2,5.8
		c14.4,0,20.9-11.3,20.9-21.8c0-5.5-2.3-13.2-8.6-18.6c-6.3-5.4-15.2-7.4-26.5-5.8v28.2c0.3-0.4,0.5-0.8,0.8-1.2
		C17.6,24,29.6,24,30.1,24z M25,9.1c3.8,0,6.9,3.1,6.9,6.9c0,3.8-3.1,6.9-6.9,6.9c-3.8,0-6.9-3.1-6.9-6.9C18.1,12.2,21.2,9.1,25,9.1
		z"/>
	<g>
		<path class="st1" d="M21.5,42h6.9V27.5c-1.6,0.1-4.2,0.5-6.9,1.5V42z"/>
		<path class="st1" d="M25,12.6c1.9,0,3.4,1.5,3.4,3.4c0,1.9-1.5,3.4-3.4,3.4s-3.4-1.5-3.4-3.4C21.5,14.1,23.1,12.6,25,12.6"/>
	</g>
</g>
</svg>
