<?xml version="1.0" encoding="utf-8"?>
<!-- Generator: Adobe Illustrator 27.7.0, SVG Export Plug-In . SVG Version: 6.00 Build 0)  -->
<svg version="1.1" id="Capa_1" xmlns="http://www.w3.org/2000/svg" xmlns:xlink="http://www.w3.org/1999/xlink" x="0px" y="0px"
	 viewBox="0 0 111 126" style="enable-background:new 0 0 111 126;" xml:space="preserve">
<style type="text/css">
	.st0{fill:none;}
	.st1{fill:none;stroke:#000000;stroke-width:2.5;stroke-linecap:round;}
</style>
<rect y="0.4" class="st0" width="111" height="125"/>
<g>
	<path class="st1" d="M5,116c0,0,43,0,51-50"/>
	<path class="st1" d="M9.3,108.2l-7.4,7.7l9.6,9.1"/>
	<path d="M57,25.6l2.4,0.5l3.5-15.3l-3.1-0.7L52,20.7l0,0L49.5,7.8l-3.1-0.7l-3.5,15.3l2.4,0.5l2.6-11.1l0,0L50.3,24l1.8,0.4l7.5-10
		l0,0L57,25.6z M77.1,30.2c1.2,0.3,2.2,0.2,3.1-0.2c0.9-0.4,1.4-1.1,1.6-2.1c0.4-1.6-0.6-3-2.8-4.1c-1.3-0.6-1.8-1.1-1.6-1.8
		c0.1-0.6,1-0.8,1.7-0.7c1,0.2,1.6,0.9,1.9,1.9l2-0.6c-0.4-1.7-1.5-2.8-3.4-3.2c-1-0.2-2-0.1-2.9,0.3c-0.9,0.4-1.4,1.1-1.7,2
		c-0.2,0.7-0.1,1.4,0.3,2.1c0.4,0.7,1.2,1.3,2.3,1.8c1.4,0.6,2,1.3,1.8,1.9c-0.2,0.7-1,1-1.9,0.8c-1.1-0.3-1.8-1-2.1-2.3l-2,0.6
		C73.8,28.5,75,29.7,77.1,30.2z M37.5,35.5c0.3-1.3,0.1-2.5-0.6-3.7c-0.7-1.1-1.9-1.9-3.7-2.3l-5.4-1.2l-3.5,15.3l2.4,0.6l1.3-5.7
		l2.7,0.6c1.8,0.4,3.2,0.3,4.5-0.4C36.4,37.9,37.2,36.9,37.5,35.5z M32.5,31.7c1.1,0.3,1.9,0.7,2.2,1.3c0.4,0.6,0.5,1.3,0.3,2
		c-0.3,1.4-1.6,2.4-3.7,1.9l-2.8-0.6l1.2-5.2L32.5,31.7z M44.1,36.9c-1.5-0.4-2.9-0.1-4.3,0.7c-1.3,0.8-2.2,1.9-2.5,3.5
		c-0.4,1.5-0.1,2.9,0.7,4.2s2,2.1,3.5,2.5c1.5,0.4,2.9,0.1,4.2-0.7c1.3-0.8,2.1-2,2.5-3.5c0.4-1.5,0.1-2.9-0.7-4.2
		C46.8,38,45.6,37.2,44.1,36.9z M41.1,39.4c0.7-0.5,1.6-0.6,2.5-0.4c0.9,0.2,1.6,0.7,2,1.5c0.4,0.8,0.5,1.6,0.3,2.5
		c-0.2,0.9-0.7,1.6-1.4,2.1s-1.5,0.6-2.5,0.4c-0.9-0.2-1.6-0.7-2-1.5c-0.4-0.8-0.5-1.6-0.3-2.6C39.9,40.6,40.4,39.9,41.1,39.4z
		 M61.6,46.6c0.3-1.4,0.1-2.7-0.6-4.1c-0.7-1.3-1.8-2.1-3.3-2.5c-0.6-0.1-1.2-0.1-2,0c-0.7,0.1-1.4,0.5-1.9,1l0.4-1.6l-2.3-0.5
		l-3.6,15.5l2.3,0.5l1.5-6.6c0.2,0.7,0.7,1.2,1.3,1.6c0.6,0.4,1.2,0.7,1.7,0.8c1.5,0.3,2.8,0.1,4.1-0.7
		C60.5,49.2,61.3,48.1,61.6,46.6z M54.4,42.5c0.7-0.5,1.6-0.6,2.5-0.4c0.9,0.2,1.6,0.7,2,1.5c0.4,0.8,0.5,1.6,0.3,2.5
		c-0.2,0.9-0.7,1.6-1.4,2.1c-0.7,0.5-1.5,0.6-2.5,0.4c-0.9-0.2-1.6-0.7-2-1.5c-0.4-0.8-0.5-1.6-0.3-2.5C53.2,43.7,53.7,43,54.4,42.5
		z M65.1,42l-1.5,6.4c-0.6,2.5,0.4,4.5,2.9,5.1c1.3,0.3,2.5,0,3.5-0.9L69.8,54l2.3,0.5l2.4-10.4l-2.3-0.5l-1.3,5.8
		c-0.4,1.6-1.5,2.4-3,2.1c-1.5-0.4-2.1-1.6-1.7-3.1l1.3-5.8L65.1,42z M75.1,55.2l2.3,0.5l3.7-15.9l-2.3-0.5L75.1,55.2z M88.1,50.8
		c-0.1,0.6-0.5,0.8-1.2,0.7l-1.3-0.3c-1.8-0.4-4.5-0.2-5.1,2.2l0,0.1c-0.2,0.9,0,1.7,0.5,2.4c0.5,0.7,1.3,1.2,2.3,1.4
		c1.4,0.3,2.5,0,3.4-0.9l-0.3,1.4l2.3,0.5l1.5-6.6c0.2-0.7,0.2-1.4,0.1-2c-0.3-1.6-1.5-2.6-3.4-3c-2.1-0.5-3.8,0-5,1.6l1.5,1.4
		c0.8-1,1.8-1.3,3-1.1C87.7,49.1,88.3,50,88.1,50.8z M87.5,53.7c-0.4,1.6-1.6,2.3-3.2,1.9c-1-0.2-1.5-0.9-1.3-1.8
		c0.1-0.4,0.4-0.7,0.9-0.9c0.5-0.2,1-0.2,1.5-0.1l2.2,0.5L87.5,53.7z M99.9,50c-0.1-0.1-0.3-0.1-0.6-0.2C98,49.5,97,49.8,96,50.9
		l0.4-1.7l-2.3-0.5l-2.4,10.4l2.3,0.5l1.2-5.3c0.4-1.8,1.6-2.6,3.4-2.2c0.3,0.1,0.5,0.1,0.6,0.2L99.9,50z M69.9,21
		c-0.1,0.6-0.5,0.8-1.2,0.7l-1.3-0.3c-1.8-0.4-4.5-0.2-5.1,2.2l0,0.1c-0.2,0.9,0,1.7,0.5,2.4c0.5,0.7,1.3,1.2,2.3,1.4
		c1.4,0.3,2.5,0,3.4-0.9l-0.3,1.4l2.3,0.5l1.5-6.6c0.2-0.7,0.2-1.4,0.1-2c-0.3-1.6-1.5-2.6-3.4-3c-2.1-0.5-3.8,0-5,1.6l1.5,1.4
		c0.8-1,1.8-1.3,3-1.1C69.5,19.3,70.1,20.2,69.9,21z M69.3,23.9c-0.4,1.6-1.6,2.3-3.2,1.9c-1-0.2-1.5-0.9-1.3-1.8
		c0.1-0.4,0.4-0.7,0.9-0.9c0.5-0.2,1-0.2,1.5-0.1l2.2,0.5L69.3,23.9z"/>
</g>
</svg>
