<?xml version="1.0" encoding="utf-8"?>
<!-- Generator: Adobe Illustrator 27.7.0, SVG Export Plug-In . SVG Version: 6.00 Build 0)  -->
<svg version="1.1" id="Capa_1" xmlns="http://www.w3.org/2000/svg" xmlns:xlink="http://www.w3.org/1999/xlink" x="0px" y="0px"
	 viewBox="0 0 254 106" style="enable-background:new 0 0 254 106;" xml:space="preserve">
<style type="text/css">
	.st0{opacity:0.9;}
	.st1{opacity:0.7396;fill-rule:evenodd;clip-rule:evenodd;fill:#FF3294;enable-background:new    ;}
</style>
<g class="st0">
	<path class="st1" d="M23.9,76.1c0.1-0.1,0.1-0.1,0.2-0.2c0.2,0,0.4-0.1,0.6-0.1c-0.1,0.1-0.1,0.2-0.2,0.3c0.3-0.2,0.2,0.1,0.1,0.4
		c-0.2,0-0.4,0.1-0.6,0.1c0,0,0,0,0,0c0,0,0.1,0,0.1,0c0,0-0.1,0-0.1,0c0-0.2,0-0.3,0.3-0.2c-0.1-0.6-0.2-0.1-0.5,0c0,0,0-0.1,0-0.1
		C23.8,76.3,23.9,76.2,23.9,76.1L23.9,76.1z M27,75.2c0,0.2,0,0.3-0.1,0.5c-0.1-0.1-0.1-0.2-0.1-0.4c0,0-0.1,0-0.1,0
		C26.8,75.2,26.9,75.2,27,75.2L27,75.2z M28.8,53.7c0,0.2,0,0.4,0.1,0.7c-0.2,0.2-0.3-0.2-0.4-0.8C28.5,53.6,28.7,53.6,28.8,53.7
		L28.8,53.7z M29,13.9c-0.2,0-0.3,0-0.5,0c-0.1,0-0.1,0-0.2,0c-0.3,0-0.6,0-0.8,0.1c-0.2-1-0.2-1.9-0.1-2.9c0-0.1,0-0.2,0-0.4
		c0,0,0,0,0-0.1c0.1,0,0.2,0.1,0.3,0.2c0,0.7,0.1,1.5,0.1,2.1l0.4-0.2c-0.1-0.7-0.1-1.2-0.1-1.6c0.2,0.1,0.4,0.3,0.6,0.4
		c-0.1,0.9-0.2,1.5-0.4,1.3c0.4,0.7,0.4,0.6,0.6,0.5C29,13.5,29,13.7,29,13.9L29,13.9z M25.8,14.6c0.1-0.5,0.2-0.4,0.4,0
		C26,14.6,25.9,14.6,25.8,14.6L25.8,14.6z M25.9,11.2c0,0,0-0.1,0-0.1c0.1,0,0.1,0,0.2,0L26,11.2L25.9,11.2z M24.7,11.2
		c0.2-0.1,0.5-0.1,0.8-0.2c0,0,0,0.1,0,0.1L24.7,11.2z M38.6,11.6c0,0.1,0,0.1,0,0.2c-0.3,0.9-0.5,0.4-0.6-0.2l0.1-0.1
		C38.2,11.6,38.4,11.6,38.6,11.6L38.6,11.6z M153.5,3.3c0.8,0.9,2.3-0.1,2.6,1c0.8,0.2,1.5,0.3,2.2,0.2c-0.2,0.1-0.4,0.2-0.6,0.4
		c-1.7-0.4-3.6-0.8-5.5-1.1C152.6,3.7,153.1,3.6,153.5,3.3L153.5,3.3z M202.9,2c0,0.2,0,0.3,0.1,0.5c-0.3-0.1-0.5-0.1-0.8-0.2
		C202.4,1.5,202.7,1.5,202.9,2L202.9,2z M246.1,13.6c-0.6,0.2-0.8,0.1-0.9-0.1c0.3,0,0.6,0,0.9-0.1L246.1,13.6z M224.2,17.4
		c0.4,0.3,1,0.6,0.8,1.1c-1.3,0.4-2.4,0.5-3.5,0.4c0-0.1,0-0.1,0-0.2c0.3-0.5,0.6-1,0.9-1.4c0.2,0.2,0.4,0.1,0.6,0
		C223.4,17.3,223.8,17.4,224.2,17.4L224.2,17.4z M219.3,59.8c0,0.1,0,0.1,0,0.2L219.3,59.8l0.3,0.1c0,0.2,0,0.3,0,0.5
		c0,0.1,0.1,0.2,0.1,0.2c-0.2,0.8-0.5,0.8-0.7,1l0-0.4c-0.7,2.3-0.4,0.5-1.1,1.4l0.3-2.3c0,0.2,0,0.4,0.1,0.6c0-0.7,0-1.2,0-1.6
		L219.3,59.8z M217.3,61.5c0-0.3,0-1.5,0.1-2.1l-1,3.5c-0.3,1.6,0,1.6,0.1,2.5c0,0.2,0,0.3-0.1,0.4c-0.1,0-0.2,0-0.3,0.1
		c0-0.1-0.1-0.1-0.1-0.3l0.2-2.1c-0.1-0.2-0.1-0.3-0.1-0.2c0-0.2,0-0.5,0-0.8l-0.3,2.3c0-0.4-0.1-1.4,0-2l-0.2,1.3
		c0.1-1.5,0.6-3,0.8-3.8c-0.4-0.4-0.6,1.2-1,1.6c0-0.3,0-0.6,0-0.9c0.3-0.1,0.5-1.2,0.7-2.5c0.2,0,0.4,0,0.6-0.1l1.4,0.5
		c0,0.3-0.1,0.6-0.1,1C217.6,59.1,217.5,61.7,217.3,61.5L217.3,61.5z M215.9,65.2l-0.1,0.6c-0.1,0.1-0.1,0.1-0.2,0.1
		c0.1-0.8,0.2-1.7,0.2-2.5c0.1,0.3,0.1,0.7,0.1,1C216,64.8,216,65,215.9,65.2L215.9,65.2z M212.4,76.6c-0.2,0-0.4,0-0.5,0.1
		c0-0.3,0-0.6,0.1-0.9c0.1,0.1,0.2-0.1,0.2-0.4l0.4,0.3l0.4-0.1c0,0,0.3-0.9,0.7-2.2c0,0.5,0.1,0.9,0.2,1.2c0-0.6,0-1.1,0.1-1.6
		l-0.2,0c0.1-0.3,0.2-0.7,0.3-1.1c0,0.1,0,0.2,0,0.3c0,0.1,0,0.2,0,0.4c0,0.1,0,0.2,0,0.3l0,0c0,0.3,0,0.6,0.1,1.1
		c0.2-0.6,0.4,0.7,0.6,1.2C213.8,75.5,213.1,76.1,212.4,76.6L212.4,76.6z M211,85.4c0.3-0.2,0.5-0.2,0.8-0.1
		C211.5,85.3,211.2,85.4,211,85.4L211,85.4z M209.6,88.2c0.2-0.1,0.4-0.1,0.6-0.2c-0.1-0.5-0.9,0.3-1.8,0c0.1,0,0.2-0.1,0.3-0.2
		l1.2-0.5l-0.4-0.2c0.2-0.2,0.4-0.4,0.6-0.7l0.3-0.1c0,0,0,0,0,0l1.5-0.6C211,87.2,210.4,88.2,209.6,88.2L209.6,88.2z M209.2,88.7
		c0-0.1,0-0.1,0.1-0.2l0.8,0.1C209.9,88.7,209.6,88.8,209.2,88.7L209.2,88.7z M207.8,92.3c-0.2,0-0.4,0-0.6-0.1
		c-0.1-0.7-0.7-0.8-0.2-1.9c-0.5-0.1-0.9,0.1-0.9,1.1c-0.1,0-0.1,0-0.2,0c-0.1-0.3-0.2-0.8-0.2-1.4c0.1,0,0.2-0.1,0.3-0.1
		c-0.1,0-0.2,0-0.3,0c0-0.3,0-0.6-0.1-0.8c0.6-0.1,1.3-0.1,2-0.2c-0.2,0.3-0.3,0.6-0.1,0.6l0.1-0.6c1-0.1,2-0.3,2.8-0.7l0.4,0.1
		C210.1,90.1,207.9,89.3,207.8,92.3L207.8,92.3z M211.9,98.9l0-0.8c0.2,0,0.5,0,0.7,0C212.6,98.6,212.5,99,211.9,98.9L211.9,98.9z
		 M213,101.5c0.2,0.2,0.3,0.3,0.6,0.3c0,0.1,0,0.2,0.1,0.3c-0.3,0-0.6,0-0.9,0C212.7,101.9,212.8,101.7,213,101.5L213,101.5z
		 M210.9,102.9c0.6-0.5,1-0.1,1.7-0.4l0.1,0.3C212.2,102.8,211.6,102.8,210.9,102.9L210.9,102.9z M39.3,12.4c0,0.2,0,0.4,0.1,0.6
		c-0.1,0-0.3,0.1-0.4,0.1C39.1,12.9,39.2,12.7,39.3,12.4L39.3,12.4z M39.7,12.3c0-0.2,0-0.4,0-0.6c0.3,0.1,0.5,0.2,0.7,0.4
		C40.2,12.1,40,12.2,39.7,12.3L39.7,12.3z M176.4,5.3c-0.2,0-0.3,0.1-0.3,0.2c0,0,0,0,0-0.1C176.2,5.3,176.3,5.3,176.4,5.3
		C176.4,5.3,176.4,5.3,176.4,5.3L176.4,5.3z M178.1,4.9l-0.4,1.5c0.5-1,1-0.7,1.6-0.4c-0.2,0.2-0.4,0.4-0.7,0.5
		c-0.1,0-0.3,0.1-0.4,0.1c-0.2,0-0.4,0-0.6,0c-0.3-0.3-0.7-0.5-0.9-0.8c0.1-0.2,0.2-0.3,0.3-0.5C177.3,5.2,177.7,5,178.1,4.9
		L178.1,4.9z M189.3,99.8c0.4,0.4,0.9,0.8,1.4,1.3l-0.1,0.3l0,0c-0.6,0-1.1-0.1-1.3-0.7c-0.1,0-0.3-0.1-0.4-0.1
		C189.1,100.3,189.2,100,189.3,99.8L189.3,99.8z M183.7,100.6c0.2-0.6,0.5-0.8,0.8-0.8c0.1,0.3,0.1,0.5,0,0.7
		C184.2,100.5,184,100.5,183.7,100.6L183.7,100.6z M181.1,100.6c0.1-0.4,0.3-0.7,0.8-0.7c0,0,0,0,0.1,0.1l0,0.5l0.2-0.3
		c0,0.1,0.1,0.1,0.1,0.2c0-0.1,0-0.3,0.1-0.4l0.1-0.1l0.5,0.6C182.2,100.4,181.7,100.5,181.1,100.6L181.1,100.6z M158.2,100.2
		c-0.1-0.1-0.1-0.2-0.2-0.2c0.5,0,0.8-0.1,1-0.1c0.1,0.1,0.1,0.3,0.1,0.4l-0.5,0c0,0.1,0,0.1,0,0.1c-0.4,0-0.9,0-1.3-0.1
		C157.6,100.1,157.9,100,158.2,100.2L158.2,100.2z M163.3,6l0.2,0.1c-0.2,0.2-0.6,0.2-0.9,0.2c-0.3-0.1-0.5-0.2-0.8-0.2
		C162.3,6.1,162.8,6.1,163.3,6L163.3,6z M197.1,89.6c0.1-0.1,0.1-0.2,0.2-0.2l0.3,0.2C197.4,89.6,197.2,89.6,197.1,89.6L197.1,89.6z
		 M165,99.8l-0.3,0.6c-0.1-0.2-0.1-0.4-0.2-0.6C164.7,99.9,164.9,99.9,165,99.8L165,99.8z M175.8,91.5l0.6-0.7
		c0.8,0.1,1.8-0.1,2.9,0l0.1,0.1C178.2,91.1,177.1,91.3,175.8,91.5L175.8,91.5z M181.1,86.6l0.3-0.4c0,0,0,0,0.1,0c0,0,0,0,0-0.1
		l0.3-0.4c0.2,0,0.2,0.4,0.1,0.7C181.7,86.5,181.4,86.5,181.1,86.6L181.1,86.6z M175.8,90c0.3,0,0.6,0,0.9,0l-0.2,0.3c0,0,0,0,0.1,0
		C176.3,90.7,176,90.4,175.8,90L175.8,90z M174.1,90.4c0-0.1,0-0.2,0-0.3c0.3,0,0.5,0.1,0.8,0.1C174.7,90.4,174.5,90.5,174.1,90.4
		L174.1,90.4z M173.2,90.1c-0.2,0.2-0.5,0.4-0.9,0.4c0,0,0.1-0.1,0.1-0.1C172.6,90.3,172.9,90.2,173.2,90.1
		C173.1,90.1,173.1,90.1,173.2,90.1L173.2,90.1z M188.9,89.7c0.3-0.1,0.2-0.4,0.2-0.6c0.2,0.1,0.4,0.1,0.7,0.1c0,0.2,0,0.4,0,0.6
		c-0.6,0-1.2,0.1-1.6,0c0-0.2,0-0.4-0.1-0.5c0.3-0.1,0.6-0.2,0.8-0.3c0,0,0,0,0,0C188.7,89.5,188.5,88.8,188.9,89.7L188.9,89.7z
		 M167,100.1c-0.5,0.9-1.5,0.5-1.8-0.2c0.6-0.1,1.1-0.1,1.7-0.1C167,99.8,167,99.9,167,100.1L167,100.1z M198.6,89.1
		c0.8,0.7,1.8,0.2,2.6,0.8c-0.8-0.1-1.7-0.2-2.5-0.2C198.8,89.5,198.6,89.3,198.6,89.1L198.6,89.1z M175.8,5.5
		c-0.1,0.2-0.1,0.5-0.4,0.6c0.2,0,0.3-0.1,0.4-0.2c0,0.1,0,0.2,0,0.2c-0.8,0.1-1.7,0.3-2.5,0.4l0.5,0.2c-0.5,0-1,0-1.5,0L172,6.5
		l-0.5,0.3c-0.9,0.1-1.9,0.2-2.8,0.4c-0.9,0.1-1.7,0.2-2.6,0.3c-1-0.3-1.9-0.5-2.6-0.7c2,0,4.1,0.4,5.6-0.4
		c-0.9-0.3-2.1-0.2-3.2-0.4c-0.2-0.2-0.4-0.3-0.7-0.5c0,0,0.1-0.1,0.1-0.1c0.8,0.7,2.1-0.3,2.5,0.7c3.2,0.5,4.6-1.3,7.7-1.2
		C175.7,5.1,175.8,5.3,175.8,5.5L175.8,5.5z M160.1,100.5c0,0,0-0.1,0-0.2l-0.1,0c0.5-0.3,0.9-0.5,1.7-0.6c0.1,0.3,0.1,0.6,0.1,0.8
		C161.2,100.6,160.6,100.5,160.1,100.5L160.1,100.5z M203.9,90.9l0,0.6c-0.3,0.1-0.5,0.1-0.8,0.2c-1.7,0-3.4,0.2-4.7,0.7
		c-0.2-0.1-0.3-0.1-0.5-0.2c0.7,0,1.3,0,1.5-0.4c-0.8,0.1-1.6,0.2-2.5,0.1l0.1-0.2c2.2-0.2,4.3-0.5,6.2-1
		C203.5,90.7,203.7,90.7,203.9,90.9L203.9,90.9z M39.4,11.7c0,0.2-0.1,0.4-0.1,0.6c-0.1,0-0.3,0.1-0.4,0.1c0-0.3,0-0.6,0-0.8
		C39.1,11.6,39.3,11.6,39.4,11.7L39.4,11.7z M36.8,12.3c0,0.2,0,0.3-0.1,0.5c-0.5,0.2-1,0.3-1.6,0.4l0.1-1.6c0.6,0,1.2,0.2,1.7,0.3
		L36.8,12.3z M34.6,14c0-0.5,0.1-1.1,0.1-1.6c0.1,0,0.2-0.1,0.2-0.1c0,0.6,0,1.1,0,1.6C34.8,14,34.7,14,34.6,14L34.6,14z M33.6,13
		c0.1-0.7,0.1-1.4,0-2.1c0.1-0.1,0.2-0.1,0.4-0.2c0,0.3,0,0.5,0.1,0.8l0,0.6C34,12.8,33.9,13.6,33.6,13L33.6,13z M32.7,10.9
		c0.1,0,0.3-0.1,0.5-0.2c0,1,0.1,1.9,0.1,2.5C33.1,12.6,32.9,11.7,32.7,10.9L32.7,10.9z M33.4,13.9C33,13.9,32.5,14,32.1,14
		l-0.5-1.9l0.3-0.1l-0.2-0.5c0.4,0,0.6,0.1,1,0.1c0.2,0.4,0.4,1,0.6,1.9C33.4,13.7,33.4,13.8,33.4,13.9L33.4,13.9z M31,13.7
		c0.2-0.1,0.3-0.3,0.6-0.1C31.3,13.6,31.2,13.7,31,13.7L31,13.7z M30.3,11.9c0.1,0,0.2-0.1,0.2-0.1c-0.1,0.1-0.1,0.3-0.2,0.3
		C30.3,12,30.3,12,30.3,11.9L30.3,11.9z M18.4,15.7l-0.7-0.3c0.2-0.9,0.6-0.6,0.9,0.2C18.5,15.6,18.4,15.6,18.4,15.7L18.4,15.7z
		 M220.1,60.3c0,0,0.1-0.1,0.1-0.1c0,0.3-0.1,0.8-0.2,1.6L220.1,60.3z M223.8,35.5c0,0.2-0.1,0.5-0.1,0.7c-0.1,0-0.1-0.1-0.2-0.1
		C223.6,35.9,223.7,35.7,223.8,35.5L223.8,35.5z M224.8,38.9c0,0.2,0,0.4,0,0.5c-0.1-0.1-0.2-0.3-0.4-0.5
		C224.4,38.8,224.6,38.8,224.8,38.9L224.8,38.9z M229.6,48.8C229.6,48.8,229.6,48.8,229.6,48.8C229.6,48.8,229.6,48.9,229.6,48.8
		c0.1,0,0.1-0.1,0.1-0.2c0.1,0.1,0.3,0.6,0.4,0.5c0,0.2,0,0.5,0,0.8c-0.1,0.1-0.1,0.2-0.2,0.3c0-0.1,0-0.2,0-0.3
		C229.8,49.9,229.5,50.2,229.6,48.8L229.6,48.8z M221.2,63.9c-0.1,0.1-0.2,0.2-0.3,0.3C221,63.6,221.1,63.6,221.2,63.9L221.2,63.9z
		 M222.6,64.3c0.2,0.2,0.3,0.5,0.3,0.8c-0.1-0.1-0.2-0.2-0.3-0.3C222.6,64.7,222.6,64.5,222.6,64.3L222.6,64.3z M2.4,72.7
		c0,0.3-0.2,0.2-0.3,0.3c0.1,0.5,0.4-0.3,0.9,0l-0.7,0.6l0.4,0.4l-1.6,1.3c1.4,0.3,2-1.5,3.1-0.8c-0.2,0.1,0,0.3,0,0.4
		c0.4-0.2,0.8-0.2,1-0.5l0.6,0c0,0.3-0.2,0.9-0.8,0.9c0.5,0,1-0.1,1.5-0.2c0.1,1,0.3,1.9,0.4,2.7c-0.2,0-0.3-0.1-0.3-0.3
		c-0.2,0.1-0.3,0-0.4,0.4c0.2,0,0.7-0.1,0.4,0.3c-0.4,0.2-0.6-0.1-0.9-0.1c0-0.1,0.3-0.4,0.1-0.3C4.8,78,3.3,78,2.6,79
		c0.3-0.1,0.3-0.4,0.7-0.3C3.3,79,3.1,78.9,3,79c0,0.5,0.4-0.3,0.8,0l-0.7,0.6l0.4,0.4L2,81.3c1.3,0.3,1.8-1.5,2.8-0.8
		c-0.2,0.1,0,0.3,0,0.4c0.3-0.2,0.7-0.2,0.9-0.5c0.1,0,0.2,0,0.4,0l0.1,0c0,0.3-0.2,0.9-0.7,0.9c1.8,0,3.3-1.2,5.1-0.8
		c0.1,0.1-0.2,0.2-0.1,0.2c0.2-0.2,0.7-0.3,0.6-0.5c0,0.1-0.1,0.3-0.2,0.3c0.3-0.1,0.6-0.1,0.8,0c-0.1,0-0.2,0.1-0.3,0.1l0-0.1
		l-0.6,0.2c0.3,0,0.9,0,1.3-0.1c0.3,0.1,0.5,0.1,0.8,0c0,0.3-0.5,0.2-0.4,0.3c0.9,0.3,1.4-0.7,2.4-0.7c-0.3,0.4,0.2,0.5,0.5,0.7
		c0.8-0.4,2.4-0.5,3.6-0.8c-0.3,1.1,1.3,0,1.4,1c0.3,0,0.7-0.2,0.7-0.5c-0.1,0.2-0.5-0.1-0.5-0.3c0.4-0.1,1-0.1,1-0.5l0.5,0.5
		c0-0.4,0.2-0.8,0.4-0.8h0c0.3,0.5,0.3,0.2,0.3,0c0.1,0,0.3,0,0.4,0c-0.2,0.3-0.3,0.5-0.4,0.8c0.4,0.1,0.4-0.1,0.6-0.2
		c0.1,0.3-0.3,0.8-0.6,1l0.5,0.3c0.5-0.6,1.4-1.3,2.2-1.2c-0.1,0.3-0.4,0.3-0.2,0.8c0.1,0,0.3-0.2,0.4-0.3c-0.2,1-0.3,2-0.5,3
		c-0.4,0.2-0.6,0.4-0.1,0.5c0,0,0,0,0,0.1c-0.8,0.2-1.1-0.4-1.8-0.2c-0.1-0.3,0.5-0.4,0.2-0.6c-0.6-0.1-1.1-0.1-1.6,0
		c0.5,0.1-0.1,0.3,0.7,0.5c-0.3,0.2-1.1,0.2-1.1,0.4c0.3-0.1,0.4-0.2,0.9,0c-0.9,0.2-1.8,0.2-2.6-0.1c0-0.1,0.1-0.1,0.2-0.2
		c-1.1,0.5-2.9,0.4-3.6,1l0.3,0.1c0.3-0.2,0.8-0.2,1.1,0c-0.9,0.2,0.6,0.6-0.3,0.8c-1.3,0.3-2.4-0.4-3.1,0.3
		c1.2,0.1,2.8,0.4,3.3,0.1l-0.8,0l1.8-0.8c0.1,0.3,1.5-0.2,1.5,0.3c-0.6,0.1-1.2,0.1-1.6,0.1c0.1,0.2,1.6,0.1,2.3,0.2L20.5,86
		c1.4-0.4,3.3-0.3,4.6-0.6c-0.6,0.2-0.2,0.3,0.2,0.4c0,0.2,0,0.3-0.1,0.5c-0.3,0-0.5-0.2-0.4-0.1c-0.1,0.2,0.1,0.2,0.4,0.3
		c0,0.4-0.1,0.7-0.1,1c-0.2,0.1-0.4,0.1-0.6,0.2l0.4-0.3c-1.1,0.7-2.2,0-3.4,0.5c0-0.1,0.2-0.1,0-0.2c-1.4-0.1-2,0.8-3.1,0.4
		l0.1-0.3c-0.1,0-0.8,0.3-0.6,0.6c0.9-0.1,1.1-0.2,2-0.2c-0.3,0.3-1.1,0.5-1.7,0.5l-0.1,0.5c-0.7,0.5-1.4-0.3-2.1,0.3l0.8,0.3
		c0,0-0.1,0-0.1,0.1c0.4-0.1,0.7-0.1,0.8-0.2c1.3-0.3,1.9,0.5,2.1,0.7c0.6,0.2-0.2,0.6-0.1,1c0.9-0.1,0.9-0.7,1.8-0.8
		c0.3,0.1,0.1,0.2,0,0.3l0.7-0.3c0,0.2,1.7,0.3,0.7,0.6c-0.1,0-0.4,0-0.6,0c1.3,0.4,3.6,0.8,3.5,1.4c0.7,0.1,0.5-0.2,1.7,0
		c0.5-0.4,0-0.8,1.2-1.1l-1-0.2c-0.2,0.1-0.4,0.2-0.6,0.2l1,0c-0.7,0.2-0.5,0.4-0.7,0.8c-1.6,0-2-0.7-2.8-0.9
		c0.4-0.3,1.1-0.2,1.1-0.5c0.8,0,1.6,0.1,1.9-0.2c0.2,0,0.3,0,0.4,0c0.4,0.2-0.2,0.5,0.8,0.7c0.5-0.1,1-0.3,1.6-0.5
		c0,0.1,0,0.1,0.1,0.2c-2,0.7,0,0.8-2.1,1.4c0,0.7,0.9,0.8,2,0.7c-0.8-0.3,0.5-1-0.5-1.4c0.9-0.2,1.3-0.6,1.7-0.9c0.1,0,0.1,0,0.2,0
		l0,0.1c1.4,0.2,2.3-0.1,3.3-0.4l0.2,0.1c-0.7,0.7-1.5,0.4-2,0.8c1.3,0.7,1.8-0.7,3.3-0.6c0.3,0.2,0.4,0.3,0.3,0.4
		c-0.2,0.1-0.5,0.1-0.7,0.2c-0.4,0.1-0.9,0.2-1.1,0.4c-0.4,0.1-0.8,0.3-1.2,0.4c0-0.1-0.4-0.1-0.3-0.3c-0.2,0.2-1.7,0.3-2.8,0.2
		c-0.2,0.5,0.9,0.4,1.6,0.6c0.1-0.1,0.3-0.1,0.4-0.1c0.7,0.1,1.3,0.1,1.7,0.1c0.5,0.1,1,0.1,1.4-0.1c0.1,0,0.2,0,0.2,0
		c1,0-0.1,0.5,0,0.5c1.2,0.2,0.5-0.4,0.9-0.5c0.2,0,0.3,0,0.4-0.1c0.1,0,0.2,0,0.3,0c1.8,0.4,2.5,1.5,4,2.3l-0.8-1
		c2.6-0.7,1.7,0.6,3.7-0.3l-0.2,1.5c0.7-0.8,2.5-0.1,3.2,0.4l0.7-1c1.6,0.6,2.6,0.9,3,1.9l-0.1-1c0.6,0.6,6.1,0.1,4.1,1.7
		c0.5-0.2,0.9-0.7,1.9-0.5l0.1,1c1.5-0.2,3.1-0.3,3.5,0.2c-0.8,0.2-1.1,0.6-1.4,1c3.9,0.2,3.4-1.1,4-2.1c1.4-0.1,2.9-0.2,3.3,0.4
		c-0.8,0.2-1.1,0.6-1.4,1c3.2,0.4,3.4-0.6,3.8-1.5l0,0c0.5-0.5,1.2-0.7,2-0.8l0,0.7c0.6-0.8,2.1-0.2,2.7,0.2l0.4-0.7l0.6,0.4
		c0.1-0.1,0.3-0.2,0.4-0.3c0.1,0,0.3,0,0.4,0.1c0.7,0.3,1.2,0.6,1.4,1.2l-0.2-1c0.5,0.6,5.2-0.2,3.7,1.4c0.4-0.2,0.7-0.7,1.6-0.6
		l0.2,1c1.2-0.3,2.6-0.5,3,0c-0.7,0.2-0.9,0.7-1.1,1.1c3.5,0,2.8-1.4,3.3-2.4c0,0,0,0,0.1,0c0.8,0.3,1.6,0.6,2.7,0.7
		c2.5,0.6,5.2,1.4,6.1,2.7c1.9-0.7-0.2-0.2-0.1-1c0.4-0.1,0.8-0.2,1.1-0.2c1.5,0.6,2.8,1.3,3.4,2.2c1.9-0.6-0.2-0.2,0-1
		c0.2,0,0.3-0.1,0.5-0.1c0.2,0.1,0.5,0.2,0.8,0.3c1.1-0.2,0.7-0.3,0.2-0.4c2.2-0.1,2.5,1.1,4,1.7c2.2-0.3-1.6-0.5-0.4-1.1
		c3.2,1,2.8-1,6.8,0c0.3,0.6-1.1,0.3-1.6,0.6c3-0.8,8.3,0.2,12.5,0.3c4.8,1,12,1.8,17.6,3.1l0.1-0.3c2.3,1.1,4.9,0.4,7.7,1l-1.3-0.6
		c0.4-0.1,0.7-0.1,1-0.2c0.2,0.1,0.5,0.1,0.8,0c0.4,0,0.8,0,1.2,0c0.2,0.7,0.5,1.2,1,0.8l0-0.8c0.2,0,0.4,0,0.6,0l0.9,1.1
		c0.3,0,0.5-0.1,0.6-0.1c0.6,0.3,1-0.2,1.5-1c0.1,0,0.1,0,0.2-0.1c1.2,0.5,3.3,0.5,4.7,0.5c0,0,0,0.1,0.1,0.1c0,0,0-0.1,0-0.1
		c0.6,0,1,0,1.2,0c0.5,0.5-0.8,0.6-1.1,0.9c0.8-0.1,1.3-0.2,1.8-0.4c0.2,0.3,0.4,0.7,0.6,0.7c0-0.4,0-0.7,0.1-1
		c0.6-0.2,1.2-0.4,2.4-0.3l0,0.3c0.4-0.1,0.7-0.1,1.1-0.1c-0.1,0.2-0.2,0.4-0.5,0.7c0.3-0.5,1.1-0.4,1.4-0.8c1-0.1,2.1-0.2,3.1-0.2
		c0,0.1,0.1,0.2,0.1,0.4c0.1-0.1,0.1-0.3,0.2-0.4c0.6,0,1.3,0,1.9,0L183,105c-0.3-0.2-0.5-0.5-0.8-0.9c1.3,0,2.6,0,3.9-0.1
		c0,0.1,0.1,0.1,0.1,0.2l2,0l-0.2,0.4c0.2,0,0.3-0.2,0.4-0.4l6.7-0.1c0.2-0.2,0.4-0.3,0.4-0.5c1,0,2,0,3.1,0c0,0.7,0.2,1.1,0.8,0.9
		l0.1-0.9c1.8-0.1,3.5-0.2,5.2-0.4l-0.2,1c0.4-0.2,0.6-0.6,0.8-1.1c0.6-0.1,1.2-0.2,1.7-0.3c0.4,0.1,0.7,0.2,1.1,0.4l0-0.3
		c0.9,0.9,1.8,0,2.8,0.4l-0.5-0.5c0,0,0,0,0.1-0.1l1.7-0.1l0.3,0.7c0.4-0.2,0.4-0.5,0.5-0.7l0.9-0.1c0.1,0.2,0.3,0.3,0.5,0.4
		c0.1-0.3,1-0.6,0.7-0.8c0.2,0,0.3-0.1,0.4-0.1c0.2,0.5-0.2,0.6-0.3,0.9c0.8-0.3,0.7-1.3,1.7-1.3l0,0.3c2.4-1.4,5.4-1.1,8-2
		c-0.2-0.1-0.1-0.3-0.2-0.5c2.8-0.4,6-0.4,8.3-2.7c-1.3,0.2-3.5-1-5.1-0.1c0,0,0,0-0.1-0.1l-0.2,0.2c-0.1,0.1-0.2,0.2-0.3,0.3
		c-0.6-0.7-1.5,0.3-1.7-0.7c-1.7-0.3-2.6,0.6-3.9,1.1c0-0.1,0-0.1-0.1-0.2c-0.7-0.2-0.9,0.1-0.8,0.5c-0.1,0-0.3,0.1-0.4,0.1
		c-0.3-0.2-0.2-0.7-0.3-1.1l1.7-0.5l-1-0.4c0.4-0.5,1.5-0.1,1.7-1c-0.8,0.6-1.9,0.6-3,0.7c0.3-0.5-0.5-1.1-0.1-1.6l-2.6,1.2l1.9-0.6
		c1.1,0.3,1,0.7,0.5,1c-0.7,0.1-1.3,0.3-1.8,0.8c0.6,0.2,1.4,0,2.1,0c0.3,0.3,0.8,0.6,0.8,1c-2,1.4-3.7,0.7-5.8,1.2
		c-0.5,0.1-1.1,0-1.3-0.4c1.7-0.1,3.3-0.4,4.8-0.9c-2.4-0.2-5.8-1.9-8.7-1.6c-0.1-0.1-0.1-0.2-0.2-0.3c0,0.1,0,0.2,0,0.3
		c-0.4,0-0.8,0.1-1.1,0.3c0,0,0-0.1,0-0.1c-0.1,0-0.2,0-0.4,0c0.4-0.1,0.7-0.2,1.1-0.4c-0.7,0-1.5,0-2.4,0c0-0.4,0.1-0.9-0.1-1.3
		c2.1-0.4,4.1-0.8,5.8-1.6c-1.3,0.1-2.9-0.1-4.5-0.2c1.7-1,4.3-2.4,6-4.5c0.2,1.1,0.6,1.1,1.1,0.9l-1.8,1l1.7-0.6
		c1.9,0.6-0.2,1.3-0.9,1.6c2.9-0.3,1.3-1.4,1.5-2.1c0.4-0.2,0.9-0.3,1.3,0.1c0.1,0.5,0.3,1.1-0.1,2l-0.3,0c1.5,0.7,3.5-0.6,5.2-2.1
		l0.3,2.2c2.2,1.1,0.2-3.5,2.7-3.8c0.2,2.4,2.8,1.5,2.5,3.4c0.5-0.1,0.7,0,1-1.4c-0.4-0.2-1.4,0.1-0.5-1.5c1-0.6,1.1,0.7,1.8,0.7
		c-0.1,0.4-0.8,1.5-0.5,1.3c1.8-0.7,4.8-0.3,7.1-3.9c-0.7,0.3-1,1.7-1.6,0.8c0.2-1,0.6-0.8,0.9-1.3c0.3-1.9-1.1,1.2-1.6-0.3l1.8-2.1
		l-0.4-1.8l4.1-4.6c-2.3-1.6-4.8,5.2-6.4,2.4c0.4-0.5,0.2-1.1,0.2-1.6c-0.8,0.8-1.6,0.7-2.3,1.9l-1-0.2c0.2-1,1.1-3.4,2.2-3.2
		c-2.3-0.4-4.6,1.2-6.9,2c-0.2-0.1-0.8,0.4-1.4,0.1l1.3-0.6l-0.7-0.4l2.9-1.3c-2.4-0.3-3.5,1.5-5.5,0.8c0.3-0.1,0-0.3-0.1-0.4
		c-0.6,0.2-1.4,0.2-1.8,0.5l-1,0c0-0.3,0.4-0.9,1.4-0.9c-1,0-1.8,0.1-2.7,0.2c-0.4-0.2-0.8-0.3-1.2,0.2c0.2-1.3,1.1-0.7,1-1.2
		c-0.6-0.4-1.2-0.3-1.8,0.1c-0.2-3.4,0.5-0.7,0.6-1.8l0.2-0.4l0.1,0c0,0.4,0,0.9-0.1,1.7c0.1-0.7,0.4-0.5,0.3-1.7l0.8-0.1
		c0,0.2,0.1,0.3,0.1,0.6c0-0.2,0-0.4,0-0.6l3.3-0.3c-0.2-0.3-0.3-1.1-0.5-1.5c0.1-1.8-0.1-1.3-0.2-1.6l0.5,0c-0.1,0.5-0.1,1,0,1.9
		l0.3-1l0,0.8l0.3-0.3c-0.1-0.7-0.1-1.1-0.2-1.5l0.3,0c0,0.6,0.1,1.3,0.3,2.1l0.5-0.3l0,0.4c0,0,0.1-0.2,0.1-0.4l1.7-0.9
		c0.1-0.6,0.1-1.3,0-2.1l0.6-0.2l-0.1,0.4c0.1,0,0.1-0.2,0.1-0.4l0.2-0.1c0.1,1.4,0.2,2.6,0.4,2.2l-0.2-2.3l0.1,0l0.1,0.1
		c0,0,0-0.1-0.1-0.1l1.2-0.5l0.1,1.8c0.1-0.4,0.1-1.1,0.1-1.9l0.2-0.1l0,0.3l0.5-0.2l-0.1-1.9c0,0.4-0.1,1.3-0.2,0.9
		c0-0.2,0-0.5,0-0.7l0-0.8l0,0.4c-0.1-0.7-0.1-1.6,0-2.6c-0.4,0-1.1-1.3-1.2,0.9c0-0.4,0-0.8,0-1.1l-0.3,2.3l0.2,0.7
		c-0.2,1.5-0.6,1.8-1,1.4c0-0.5-0.1-1-0.1-1.4l0,1.1c-0.1-0.2-0.2-0.5-0.2-0.8c0.5-0.8,0.3-3.6,0.9-2.1c0-0.7-0.1-2,0-2.4
		c-0.8,0.8-1.5-0.5-2.4,1.9c0.4,1.4,0.1,1.8-0.1,2.5c0-0.1,0-0.1,0-0.2l0,0.4c-0.1,0.5-0.2,1.1-0.2,2.2l0.1-0.2l0.2,0.7
		c0,0.3,0,0.5-0.1,0.7l0,0c0,0,0,0,0,0c-0.2,1.2-0.7,0.9-0.9,0l0.8,0c-0.2-0.3-0.4-1.1-0.6-1.6c0.1-0.8,0.1-1.1,0.1-1.3
		c0.1,0,0.1,0.2,0.2,0.4c-0.1-0.6-0.2-1.7-0.1-2.2c0,0.1,0,0.2,0.1,0.2c0-0.2,0-0.3,0-0.5c0,0,0-0.1,0.1-0.1c0,0,0,0-0.1,0
		c0-1-0.1-1.9-0.1-3.1c-0.5-1.5-0.6,4.2-1.1,3.3c0-1.4,0.2-2.7-0.1-2.5l0.1-0.3c-0.3,1-0.4-0.5-0.5-0.8c0.1-0.2,0.2-0.6,0.3-1.1
		c0.1-0.3,0.2-0.7,0.3-1.3c0.1,1,0.2-1.1,0.4-0.8c-0.1,0.9-0.3,2.3-0.2,2.6c0.2-3.2,1.1,1.9,1.2-0.4c0.1-0.8,0.1-1.5,0.2-2.2
		c0.4,0.4,0.8-0.5,1.2-2.2c-0.2,0.4-0.2,0.1-0.2-0.4c0.1,0,0.3-0.1,0.4,0.1c0,0,0,0,0,0.1l0,0.9c0.1,0.2,0.1,0.2,0.2,0.1
		c-0.1,0.4-0.1,0.6-0.1,0.7c0.1-0.4,0.1-0.6,0.2-0.8c0.1-0.1,0.2-0.3,0.3-0.2c0,0,0.1,0.1,0.1,0.1l0.1,1.7c0.1-0.3,0.3-0.5,0.4-0.6
		c0.1,0.1,0.1,0.1,0.2-0.1c0,0,0.1,0,0.1,0c0-0.2,0-0.4-0.1-0.5c0-0.3,0.1-0.5,0.1-0.8c0,0.3,0,0.6,0.1,0.9c0.3-1.2,0.8-2.9,1.1-5.3
		c0.2,1.4,0.3,0.8,0.5,0.5c0.1,0,0.2,0,0.3,0c0,0,0,0,0,0c0.1,0.5,0.2,1,0.2,2l-0.1,0.1c0.3,0.3,0.5-0.2,0.7-1.1
		c0.1,0,0.2,0,0.3,0.1l0,1.8c0.2-0.5,0.7-0.8,1-0.7c0-1-0.3-0.8-0.1-2.1c-0.2,0-0.3,0.2-0.3,1.3c0,0-0.1-0.1-0.1-0.2
		c0-0.5-0.1-1.6-0.2-2.4l0.3-0.6c0.1,0.4,0.2,0.6,0.3,0.7c0,0.2,0,0.3,0,0.3l0-0.3c0.1,0.2,0.3,0.3,0.4,0.7c-0.1,0.4-0.2,1-0.2,2.2
		c0.5-1.2,1.3-2.9,1.8-5.2c0.2,2.2,0.6-0.5,1,0.5c0,0.5,0.2,1,0.1,2l-0.1,0.1c0.5,0.5,1.1-1,1.6-2.7l0.2,2.2
		c0.8,0.8-0.1-3.5,0.7-4.1c0.1,2.3,1,1.1,1,3c0.2-0.2,0.2-0.1,0.3-1.5c-0.1-0.2-0.4,0.3-0.2-1.4c0.3-0.7,0.4,0.5,0.6,0.4
		c0,0.4-0.2,1.6-0.1,1.3c0.6-0.9,1.6-0.9,2.2-4.7c-0.2,0.4-0.3,1.8-0.5,1c0-1,0.2-0.9,0.2-1.4c0-1.9-0.3,1.3-0.5-0.1l0.5-2.3
		l-0.2-1.8l1.2-5c-0.8-1.3-1.4,5.8-2,3.2c0.1-0.6,0-1.1,0-1.6c-0.2,0.9-0.5,0.9-0.7,2.2l-0.3-0.1c0-1,0.2-3.5,0.6-3.5
		c-1.3-0.2-2.3,4.9-3.6,3.1c0-0.5,0.2-0.6,0.1-0.9c-0.2,0.6-0.5,1.3-0.5,1.9c0-0.4,0.1-1.2,0.2-1.2c-0.7,1-1-2.1-1.4-0.6
		c0-1.3,0.3-0.8,0.3-1.3c-0.4-0.6-0.7,0.5-1,1.5c0,0,0,0.1,0,0.1c-0.2,0.6-0.4,1.2-0.7,1.2c0.2-1.2,0.1-1.6-0.1-2.1
		c0.1-0.5,0.3,0.5,0.3-0.7l0,0.4l0.1-0.8c-0.1,0.1-0.4,0-0.5,1c-0.1-0.2-0.1-0.5-0.2-0.8c-0.6,1.6-1.7,1.9-2.5,3.2
		c0.3-4.5-0.9-0.1-0.9-3.9c-0.2,0-0.5,0.6-0.5,2.1c0.1-0.7,0.3,0.5,0.3,1.2c-0.1,0.1-0.3,0.2-0.4,0.5c-0.2-0.3-0.3,0.1-0.4,0.7
		c0,0,0,0,0,0l-0.1-0.9c0,0.3,0,0.6,0,0.8c0,0-0.1,0-0.1,0c-0.8-1.1,0.7-0.3-0.4-1.6c-0.1-0.1-0.3-0.2-0.4-0.3
		c0.1-0.8,0.2-1.6,0.3-2l-0.1-0.4c0.1-0.4,0.2-0.9,0.3-1.4c-0.2,0.3-0.3,1.1-0.4,1.2l-0.1-0.4c0.1-0.7,0.2-0.6,0.3-1.1
		c0.1-1.9-0.4,1.3-0.6-0.1l0.6-2.3l-0.2-1.8l1.4-5c-0.9-1.3-1.7,5.8-2.3,3.2c0.2-0.6,0.1-1.1,0.1-1.6c-0.3,0.9-0.6,0.9-0.8,2.2
		l-0.4-0.1c0.1-1,0.3-3.5,0.7-3.5c-1.4-0.2-2.7,4.9-4,3c0-0.5,0.2-0.6,0.1-0.9c-0.2,0.4-0.4,0.9-0.5,1.4c0,0,0,0,0,0
		c0-0.3,0.1-0.6,0.2-0.7c-0.3,0.5-0.6,0-0.8-0.4c0.1-0.2,0.2-0.3,0.2-0.5c0.4,0.3,0.9,1.3,0.9-1.8c0.1-0.3,0.3-0.5,0.4-0.8
		c0,0.1,0,0.3,0,0.4c0-0.2,0.1-0.3,0.1-0.5l0,0c1.5-0.4,3.1-0.5,4.7-0.4c0,0.1-0.1,0.2-0.1,0.4c0.1-0.7,0.3,0.1,0.5-0.4
		c1.6,0.1,3.2,0.2,4.8,0c-0.2-0.1-0.1-0.3-0.1-0.5c1.1,0.1,2.2,0.2,3.4,0.2c0,0.2,0.2,0.5,0.5,0.6c0.1-0.2,0.8-0.4,0.9-0.6
		c2,0,4.1-0.3,5.9-1.3c-1.9-0.1-4.6-2.1-6.9-0.7c-0.5-0.8-1.8,0-1.9-1c-2.6-0.8-4.1,0.7-6.6,0.4c-0.3-0.2,0-0.7-0.1-1.2l2.1-0.2
		l-1.2-0.6c0.6-0.4,1.9,0.2,2.2-0.7c-1.6,0.6-3.6,0-5.3,0.2c0.2-0.4,0.3-0.7,0.5-1c0,0,0,0,0,0c0.8,0.1,1.5,0.3,2.3,0.4
		c-0.2,0.1-0.4,0.3-0.5,0.4c0.4-0.1,0.6-0.2,0.8-0.4c5.2,0.7,10.7,0.7,15.6,0.5c0.3,0,0.6,0,1-0.2c1.7,0.1,3.3,0.1,4.9,0.2
		c0.9,0.2,2.4-0.8,3.7-1c-1.2-0.6-1.5-0.1-2.8-0.4c-0.6-0.4-0.8-1-1-1.7c2.6-0.2,5-0.6,7.1-1.8c-2.5,0.1-6.5-1.8-9.1-0.1
		c-0.9-0.8-2.4,0.2-2.7-0.9c-0.2,0-0.3,0-0.5-0.1c0-0.1,0-0.2,0-0.3l-0.1,0.2c-0.6-0.1-1.2-0.1-1.7,0c-0.2-0.1-0.3-0.2-0.4-0.3
		c1.5-0.4,2.9-1,4-2.1c-1.7,0.3-4.6-1.3-6.4,0.4c-0.1-0.1-0.2-0.2-0.3-0.4c0.4-0.1,0.6-0.4,0.8-0.7c0.1,0,0.2,0,0.3,0l-0.2-0.8
		l-1.6,0.5c0,0,0.1,0.1,0.1,0.1c-0.4,0.2-0.6,0.6-0.8,1c-0.2,0-0.3-0.2-0.4-0.4c-2.1-0.4-3.1,0.8-4.8,1.2c-0.4,0-0.8-0.2-0.8-0.5
		c0.5-0.2,0.7-0.5,0.9-0.9l0.4-0.1l-1.2-0.4c0.5-0.4,1.7-0.1,1.9-1c-1.7,1.1-4.4,0.2-5.8,1.5c0.3,0.1,0.7,0.1,1.1,0.1l-0.7,0.3
		l1.2-0.3c0.3,0,0.5,0,0.8,0c0.1,0.1,0.3,0.2,0.4,0.3c-0.1,0.2-0.2,0.3-0.3,0.5c-0.7-0.2-1.4-0.4-2.1-0.1c-0.7,0.1-1.3-1.3-2.7-1.4
		l-0.1,0.7c0,0,0,0,0,0c-0.1,0-0.2,0-0.2,0c-0.2-0.2-0.5-0.4-0.8-0.6l0-0.1l-0.1,0c-0.6-0.4-1.3-0.8-2-1.3l0,0l0,0
		c-0.9-0.7-1.7-1.4-2-2.4c-1.2,0.6,0.1,0.2-0.1,1c-2.2,0.7-2-0.8-2.9-1.5c-1.3,0.3,0.9,0.5,0.1,1.1c-0.8-0.5-1.2-0.3-1.7,0
		c-0.2-0.3-0.3-0.5,0.1-0.8c-1.4-0.5-3.1,0-4.6,0.4c-1-0.1-2-0.3-2.9-0.4c0-0.5,0-1.1,0-1.6c-0.3,0-0.5,0-0.8,0
		c0.1,0.7,0,1.2-0.1,1.6c0,0,0,0-0.1,0c-0.2-0.1-0.4-0.1-0.5-0.2c0-0.4,0.1-0.9,0.2-1.4c-1,0-1.9,0-2.9-0.1
		c-0.1,0.2-0.1,0.4-0.2,0.6l0,0l0-0.6c-0.1,0-0.3,0-0.4,0c-0.1,0.1-0.3,0.1-0.4,0c-0.2,0-0.4,0-0.7,0c-0.1,0.2-0.2,0.2-0.3,0
		c-0.3,0-0.6,0-0.9,0c-1.3-0.3-2.5-0.7-3.7-1.1L195.2,1c-0.3-0.3-0.7-0.4-1.1-0.5c0-0.1,0-0.2,0-0.3c0,0.1-0.1,0.2-0.1,0.3
		c-1-0.2-2.1,0.1-3.2-0.3l0.7,0.6C190.5,1.3,190,0.9,189,1l-0.4-1c-1.1,0.3-0.5,0.8-1.4,1.3c-0.7-0.5-1.9-0.4-2.8-0.3
		c-0.2-0.1-0.5-0.1-0.7-0.1c0-0.4,0.5-0.5,0.7-0.7c-0.6,0.1-0.9,0.4-1.3,0.7c-0.7,0-1.5,0-2.3-0.3l0.6,0.5c-0.3,0.1-0.7,0.2-1.1,0.3
		c-0.5,0-1-0.1-1.6-0.1l-0.4-1.1c-1.2,0.2-0.6,0.8-1.5,1.2c-0.9-0.7-3.1-0.4-3.6-0.5C173,0.4,173.8,0.3,174,0c-1.3,0.2-1.4,1.2-3,1
		l0-0.3c-4.1,1-8.9,0.1-13.3,0.6c0.3,0.1,0.2,0.3,0.3,0.5c-4.5-0.1-9.6-0.5-13.4,1.4c-0.6-0.1-1.3-0.1-1.9-0.2
		c-0.4,0-0.7-0.1-1.1-0.1c0-0.1-0.1-0.2-0.2-0.2c0,0.1-0.1,0.1-0.1,0.2c-1-0.1-1.9-0.1-2.9-0.2c0.3-0.2,0.6-0.3,0.8-0.4
		c-0.6,0-0.9,0.2-1.1,0.4c-6.2-0.3-12-0.2-16.1,0.1c-1.6-0.5-3.7-0.3-5.4-0.3c0.9,0.2,0.6,0.5-0.1,0.5c-4.9,0.2-0.3,0.3-5.3,0.8
		c-0.9,0.1-2.2,0.3-3.7,0.4c0.5-0.2,0.4-0.4,0.3-0.7c0.6-0.3,1.5-0.2,2.1-0.4l-2.1,0.3c0-0.1,0-0.3,0.1-0.4
		c-0.1,0.2-0.2,0.3-0.4,0.4l-0.2,0l0.1,0c-0.7,0.5-1.1-0.3-0.2,0.7c-0.8,0.1-1.6,0.1-2.5,0.2l1.2-0.9c-1.5,0-3.6,0.4-2.9-0.5
		c-2.6,1.1-7.1,0.7-10.3,1.3L93,3.6c-1.7,1-6.1,0-7.5,1.2l-0.2-0.3l-3.3,1.1c-1.5-0.1-1-1.3-1.1-1c-3.3,0.2-5.9,0.3-8-0.1
		c-0.5,1.1-4,1.5-6.7,1.6c-6.6-0.3-13.5,0-20.3,0.5c-5.1,0.4-10.2,1-15,1.9c-0.1-0.5-0.3-0.7-0.4-0.4l0.1,0.4
		c-0.3,0.1-0.5,0.1-0.8,0.2c0-0.1,0-0.2,0.1-0.3c-0.2-0.4-0.4-0.2-0.4,0.4c-0.9,0.2-1.8,0.4-2.7,0.6c-0.1-0.3-0.2-0.5-0.3-0.5
		c0,0.2,0.1,0.4,0.1,0.6c-0.1,0-0.1,0-0.2,0c-0.3,0.1-0.6,0.1-1,0.3c0,0,0-0.1,0-0.1c0,0,0,0.1,0,0.1c-1.2,0.4-2.6,1.3-3.9,2.1
		L19.6,12c0.2,0.3,0.5,1.1,0.8,1.5c0,1.1,0,1.3,0.1,1.4c-0.1,0-0.3,0-0.4,0.1c0-0.4,0-1-0.1-1.7l-0.3,1l-0.1-0.8l-0.4,0.3
		c0.1,0.6,0.2,1,0.3,1.3c-0.1,0-0.2,0.1-0.4,0.1c-0.1-0.5-0.2-1.2-0.5-2L18,13.5l0-0.4c-0.1,0-0.1,0.2-0.1,0.4l-2.2,1.1
		c0,0,0,0.1,0,0.1l-0.4-0.1l-0.4,0.2c0,0-0.1,0.8-0.1,2.1c-0.2-1.3-0.4-2.3-0.7-1.9l0.4,2.4l0.2,0.2c0,1.4,0,3.2,0.2,5.1
		c0.1,1.2,0.3,2.4,0.6,3.6c0,0.8,0.1,1.6,0.2,2.4c-0.1,0.1-0.3,0.3-0.5,0.1L15,27c-0.2,0.5-0.6,0.8-1,0.8c0.1,1,0.4,0.8,0.5,2
		c0.2,0,0.3-0.2,0.1-1.3c0.2,0,0.4,1.6,0.7,2.4l-0.5,1.2c-0.1-0.1-0.1-0.3-0.1-0.4l0.2,1.9c-0.2,0-0.3-0.5-0.4-1.3
		c-0.1,0.3-0.2,1-0.2,1.6c-0.1,0-0.3,0-0.4,0c0-1,0-1.6,0.2-1.6l-0.5,0.1c0-1.8,0.8-1.4,0.3-4.3c-0.4,1.2-0.9,3-1,5.3
		c-0.6-2.1-0.5,0.5-1.1-0.4c-0.1-0.5-0.3-1-0.4-2l0.1-0.1c-0.6-0.4-1,1.1-1.2,2.8l-0.6-2.1c-0.6-0.5-0.1,1.1,0.1,2.5
		c-0.3,0.1-0.5,0.1-0.8,0.2c-0.3-0.3-0.6-0.3-0.8-1.4c-0.1,0.2-0.2,0.2-0.1,1L7,33.5l-0.3,0.1c0,0-0.1,2.3,0,5.3c0,0.1,0,0.2,0,0.3
		c0,0,0,0,0,0c0,0.7,0.1,1.5,0.1,2.2C7.1,43.7,7.4,46,8,47.9l0,0.9c0.2,0.2,0.3,0.2,0.4,0c0.2,0.5,0.4,0.9,0.7,1.3l0,0.3
		c0,0,0.1-0.1,0.2-0.1c0.3,0.4,0.6,0.8,1,1l0,0.4l0.7-0.1c0.9,0.1,1.2-0.4,1.2,0l-1.2,0.1c0.9,0,0.3,0.3,0,0.6c0.4,0,0.7,0,1,0.1
		c0.1-0.2-0.2-0.2-0.3-0.2c0.4-0.2,1-0.7,1.7-0.5c0.9,0,0.2,0.7,1.2,0.6c4-0.1,7.9-0.2,11.8-0.4l-0.6,2.1c0.8,0.6,1.2-0.9,1.7-2.2
		c0.5,0,1-0.1,1.5-0.1c0,0.2,0.1,0.3,0.1,0.5c0.1-0.2,0.2-0.4,0.2-0.5c0.4,0,0.7,0,1.1-0.1c0,0.2,0.1,0.4,0.1,0.5
		c-0.1,0.4-0.2,0.8-0.3,1.1c0,0-0.1,0-0.1,0c0-0.7,0.1-1.2,0-1.5c-0.2,0.9-1-0.7-0.9,1.7c-0.1,0-0.3,0.1-0.3,0.1
		c0-0.1,0-0.2-0.1-0.3c0,0.1,0,0.2,0,0.3c0,0-0.1,0.1-0.1,0.1c0,0,0,0,0.1,0c0,1.4-0.4,1.3-0.6,1c0-0.1,0-0.1,0-0.2
		c0,0.1,0,0.1-0.1,0.2c-0.2-0.2-0.4-0.4-0.5,0.1c-0.1,0-0.2,0.1-0.3,0.3c0,0,0,0,0,0l0-0.2l-0.1,0.3c-0.4,0.4-1.1,1-2.4,1.1
		c-3.6,0.7-7.4,1.8-11,2.6c0-0.3,0.7-0.6,1.4-0.9c-0.5,0.1-1.2,0.4-1.7,0.3c1,0.2-1.4,0.7-0.6,0.7c-2.2,1.7-5.9,1.8-7.9,3.1
		c0.1,0.5,0.5,4.7,1,8.9c0,0.2,0,0.3,0.1,0.5c-0.1,0-0.1-0.1-0.1-0.2c-0.2,0.1-0.4,0-0.4,0.4c0.2,0,0.7-0.1,0.4,0.3
		c-0.4,0.2-0.7-0.1-1-0.1c0-0.1,0.3-0.4,0.1-0.3C4,72,2.4,72,1.6,72.9C1.9,72.9,1.9,72.5,2.4,72.7L2.4,72.7z"/>
</g>
</svg>
