<?xml version="1.0" encoding="utf-8"?>
<!-- Generator: Adobe Illustrator 27.7.0, SVG Export Plug-In . SVG Version: 6.00 Build 0)  -->
<svg version="1.1" id="Capa_1" xmlns="http://www.w3.org/2000/svg" xmlns:xlink="http://www.w3.org/1999/xlink" x="0px" y="0px"
	 viewBox="0 0 32 42" style="enable-background:new 0 0 32 42;" xml:space="preserve">
<style type="text/css">
	.st0{fill:#FF3294;}
</style>
<path class="st0" d="M26.7,2C28.5,2,30,3.5,30,5.3l0,34.5l-10.6-8.1c-1-0.7-2.2-1.2-3.4-1.2s-2.4,0.4-3.4,1.2L2,39.8V5.3
	C2,3.5,3.5,2,5.3,2H26.7 M26.7,0H5.3C2.4,0,0,2.4,0,5.3v35c0,0.7,0.4,1.3,1,1.6C1.2,41.9,1.5,42,1.8,42c0.4,0,0.8-0.1,1.1-0.4
	l11-8.4c0.6-0.5,1.4-0.7,2.2-0.7c0.8,0,1.5,0.2,2.2,0.7l11,8.4c0.3,0.2,0.7,0.4,1.1,0.4c0.3,0,0.5-0.1,0.8-0.2c0.6-0.3,1-0.9,1-1.6
	v-35C32,2.4,29.6,0,26.7,0L26.7,0z"/>
</svg>
