<?xml version="1.0" encoding="utf-8"?>
<!-- Generator: Adobe Illustrator 27.7.0, SVG Export Plug-In . SVG Version: 6.00 Build 0)  -->
<svg version="1.1" id="Capa_1" xmlns="http://www.w3.org/2000/svg" xmlns:xlink="http://www.w3.org/1999/xlink" x="0px" y="0px"
	 viewBox="0 0 149 149" style="enable-background:new 0 0 149 149;" xml:space="preserve">
<style type="text/css">
	.st0{fill:#704D9A;}
	.st1{fill:#FFFFFF;filter:url(#Adobe_OpacityMaskFilter);}
	.st2{mask:url(#mask0_0_1504_00000132807910908162595120000013946804228977965729_);}
	.st3{opacity:0.3921;fill:none;enable-background:new    ;}
	.st4{fill-rule:evenodd;clip-rule:evenodd;fill:#FFFFFF;stroke:#FFFFFF;}
</style>
<g>
	<circle class="st0" cx="74.5" cy="54.5" r="34.5"/>
	<defs>
		<filter id="Adobe_OpacityMaskFilter" filterUnits="userSpaceOnUse" x="10.1" y="-21.5" width="130.4" height="146.9">
			<feColorMatrix  type="matrix" values="1 0 0 0 0  0 1 0 0 0  0 0 1 0 0  0 0 0 1 0"/>
		</filter>
	</defs>
	
		<mask maskUnits="userSpaceOnUse" x="10.1" y="-21.5" width="130.4" height="146.9" id="mask0_0_1504_00000132807910908162595120000013946804228977965729_">
		<circle class="st1" cx="74.5" cy="54.5" r="34.5"/>
	</mask>
	<g class="st2">
		<rect x="13.3" y="12.5" transform="matrix(0.5 -0.866 0.866 0.5 -7.3816 91.189)" class="st3" width="124" height="79"/>
		<path class="st4" d="M82.9,61.7h-9.7c-0.7,0-1.2-0.5-1.2-1.2c0-0.7,0.5-1.2,1.2-1.2h9.7c1.8,0,3.3-1.4,3.5-3.2
			c0.2-1.8-1-3.5-2.7-3.9c-0.6-0.1-1-0.7-0.9-1.4c0.6-3.8-1.8-7.3-5.6-8.2c-3.7-0.8-7.4,1.3-8.5,5c-0.1,0.5-0.6,0.8-1.1,0.9
			c-3,0.1-5.4,2.5-5.3,5.5c0.1,3,2.5,5.4,5.5,5.3c0.7,0,1.2,0.5,1.2,1.2c0,0.7-0.5,1.2-1.2,1.2c-4.1,0-7.5-3.2-7.8-7.3
			c-0.3-4.1,2.6-7.7,6.7-8.3c1.7-4.3,6.2-6.8,10.8-5.9c4.6,0.9,7.9,4.8,7.9,9.5c0,0.2,0,0.3,0,0.5c2.6,1.1,4.1,4,3.5,6.8
			C88.3,59.7,85.8,61.7,82.9,61.7z"/>
	</g>
</g>
</svg>
