<?xml version="1.0" encoding="utf-8"?>
<!-- Generator: Adobe Illustrator 27.7.0, SVG Export Plug-In . SVG Version: 6.00 Build 0)  -->
<svg version="1.1" id="Capa_1" xmlns="http://www.w3.org/2000/svg" xmlns:xlink="http://www.w3.org/1999/xlink" x="0px" y="0px"
	 viewBox="0 0 130 130" style="enable-background:new 0 0 130 130;" xml:space="preserve">
<style type="text/css">
	.st0{fill:#FF3294;}
	.st1{fill-rule:evenodd;clip-rule:evenodd;fill:#FFFFFF;stroke:#FFFFFF;}
</style>
<g>
	<circle class="st0" cx="65" cy="65" r="35"/>
	<path class="st1" d="M73.3,75.7H58.7c-2,0-3.7-1.6-3.7-3.7v-8.6c0-2,1.6-3.7,3.7-3.7h9.8c0.7,0,1.2-0.5,1.2-1.2v-2.2
		c0-1.9-1.4-3.6-3.3-3.9c-1-0.1-2.1,0.2-2.8,0.9c-0.8,0.7-1.2,1.7-1.2,2.7c0,0.7-0.5,1.2-1.2,1.2s-1.2-0.5-1.2-1.2
		c0-1.7,0.7-3.4,2-4.5c1.3-1.2,3-1.7,4.7-1.6c3.2,0.4,5.5,3.1,5.5,6.3v2.2c0,2-1.6,3.7-3.7,3.7h-9.8c-0.7,0-1.2,0.5-1.2,1.2V72
		c0,0.7,0.5,1.2,1.2,1.2h14.7c0.7,0,1.2-0.5,1.2-1.2V61c0-0.7,0.5-1.2,1.2-1.2c0.7,0,1.2,0.5,1.2,1.2v11C77,74,75.4,75.7,73.3,75.7z
		"/>
</g>
</svg>
